<?xml version="1.0" encoding="UTF-8" standalone="no"?>
<!-- Created with Inkscape (http://www.inkscape.org/) -->

<svg
   xmlns:dc="http://purl.org/dc/elements/1.1/"
   xmlns:cc="http://creativecommons.org/ns#"
   xmlns:rdf="http://www.w3.org/1999/02/22-rdf-syntax-ns#"
   xmlns:svg="http://www.w3.org/2000/svg"
   xmlns="http://www.w3.org/2000/svg"
   xmlns:sodipodi="http://sodipodi.sourceforge.net/DTD/sodipodi-0.dtd"
   xmlns:inkscape="http://www.inkscape.org/namespaces/inkscape"
   width="127.2143"
   height="61.461063"
   viewBox="0 0 127.2143 61.461063"
   id="svg6083"
   version="1.1"
   inkscape:version="0.91 r13725"
   inkscape:export-filename="/home/oleg/Desktop/logo.png"
   inkscape:export-xdpi="22.5"
   inkscape:export-ydpi="22.5"
   sodipodi:docname="logo.svg">
  <defs
     id="defs6085" />
  <sodipodi:namedview
     id="base"
     pagecolor="#ffffff"
     bordercolor="#666666"
     borderopacity="1.0"
     inkscape:pageopacity="0.0"
     inkscape:pageshadow="2"
     inkscape:zoom="5.12"
     inkscape:cx="76.313558"
     inkscape:cy="29.369851"
     inkscape:document-units="px"
     inkscape:current-layer="layer1"
     showgrid="false"
     units="px"
     inkscape:window-width="1855"
     inkscape:window-height="1056"
     inkscape:window-x="65"
     inkscape:window-y="24"
     inkscape:window-maximized="1"
     fit-margin-top="0"
     fit-margin-left="0"
     fit-margin-right="0"
     fit-margin-bottom="0" />
  <metadata
     id="metadata6088">
    <rdf:RDF>
      <cc:Work
         rdf:about="">
        <dc:format>image/svg+xml</dc:format>
        <dc:type
           rdf:resource="http://purl.org/dc/dcmitype/StillImage" />
        <dc:title></dc:title>
      </cc:Work>
    </rdf:RDF>
  </metadata>
  <g
     inkscape:label="Layer 1"
     inkscape:groupmode="layer"
     id="layer1"
     transform="translate(-0.45534955,-959.94876)">
    <g
       id="g6667"
       transform="matrix(0.56769466,0,0,0.56769466,-84.589625,881.83755)">
      <path
         inkscape:connector-curvature="0"
         id="path6655"
         style="fill:#ffffff;fill-rule:evenodd"
         d="m 261.8525,137.5937 c 61.7111,0 112.0444,24.3169 112.0444,54.1318 0,29.8155 -50.3333,54.1325 -112.0444,54.1325 -61.7122,0 -112.0449,-24.317 -112.0449,-54.1325 0,-29.8149 50.3327,-54.1318 112.0449,-54.1318 z" />
      <path
         inkscape:connector-curvature="0"
         id="path6657"
         style="fill:#e30016;fill-rule:evenodd"
         d="m 201.0536,163.2767 7.8784,0 0,21.62 -41.2707,0 -0.0901,-3.8373 33.4824,0 0,-17.7827 z m 15.8481,21.62 0,-10.077 6.2299,0 0,10.077 5.13,0 0,-10.077 c 0,-1.1812 -0.2848,-2.0974 -0.8549,-2.7484 -0.6516,-0.733 -1.6492,-1.0992 -2.9928,-1.0992 l -12.6422,0 0,13.9246 5.13,0 z m 14.7495,0 0,-10.077 -1.313,0 0,-3.8476 1.313,0 0,-3.6646 c 0,-1.1807 0.2847,-2.0968 0.8549,-2.7484 0.6516,-0.733 1.6491,-1.0992 2.9927,-1.0992 l 1.2824,0 6.138,0 0,3.8476 -6.138,0 0,3.6646 6.138,0 0,3.8476 -6.138,0 0,10.077 -5.13,0 z m 27.4529,-14.2914 c 1.3228,0 2.3106,0.3668 2.9616,1.0992 0.5909,0.6718 0.8861,1.588 0.8861,2.7484 l 0,6.5961 c 0,1.1807 -0.2854,2.0968 -0.8555,2.7484 -0.651,0.733 -1.6486,1.0993 -2.9922,1.0993 l -10.0775,0 c -1.3234,0 -2.2956,-0.3512 -2.9159,-1.0536 -0.621,-0.7025 -0.9318,-1.6336 -0.9318,-2.7941 l 0,-6.5961 c 0,-1.1807 0.2854,-2.0968 0.8549,-2.7484 0.6516,-0.7324 1.6492,-1.0992 2.9928,-1.0992 l 10.0775,0 z m -8.7951,3.8476 0,6.5961 7.5122,0 0,-6.5961 -7.5122,0 z m 14.4745,-11.1461 23.4522,0 0,6.0467 -23.4522,0 0,-6.0467 z m 7.8784,7.879 7.8784,0 0,13.7415 -7.8784,0 0,-13.7415 z m 30.0789,4.9163 -6.1987,0 0,3.6645 10.81,0 0,-4.9469 c 0,-1.1812 -0.2854,-2.0974 -0.8549,-2.7484 -0.6516,-0.733 -1.6492,-1.0992 -2.9928,-1.0992 l -9.5582,0 c -1.3234,0 -2.2955,0.3512 -2.9159,1.053 -0.621,0.7024 -0.9317,1.6342 -0.9317,2.7946 l 0,6.2293 c 0,1.1807 0.2853,2.0968 0.8549,2.7484 0.6515,0.733 1.6491,1.0993 2.9927,1.0993 l 13.4059,0 0,-3.8477 -12.1235,0 0,-6.2293 7.5122,0 0,1.2824 z m 21.773,-1.2824 0,-3.8476 -11.1768,0 c -1.3233,0 -2.2955,0.3512 -2.9159,1.053 -0.621,0.7024 -0.9317,1.6342 -0.9317,2.7946 l 0,6.2293 c 0,1.1807 0.2853,2.0968 0.8549,2.7484 0.6516,0.733 1.6491,1.0993 2.9927,1.0993 l 11.1768,0 0,-3.8477 -9.8944,0 0,-6.2293 9.8944,0 z m -117.2466,19.005 c -1.7912,0 -3.2469,0.5903 -4.3663,1.771 -1.1201,1.1807 -1.6798,2.6058 -1.6798,4.2751 l 23.3915,0 0,-6.0461 -17.3454,0 z m 0,13.7415 18.0478,0 c 0,-1.629 -0.5603,-3.013 -1.6797,-4.1533 -1.1195,-1.1396 -2.5653,-1.7098 -4.3364,-1.7098 l -18.0778,0 c 0,1.6486 0.5545,3.0384 1.6642,4.1683 1.1096,1.1298 2.5705,1.6948 4.3819,1.6948 z m -6.0461,7.8784 18.0472,0 c 1.7918,0 3.2475,-0.5903 4.367,-1.771 1.1194,-1.1807 1.6797,-2.6058 1.6797,-4.2752 l -24.0939,0 0,6.0462 z m 39.7283,-8.7946 -6.1986,0 0,3.6646 10.81,0 0,-4.9469 c 0,-1.1813 -0.2854,-2.0974 -0.855,-2.7484 -0.6515,-0.7331 -1.6491,-1.0993 -2.9927,-1.0993 l -9.5582,0 c -1.3234,0 -2.2956,0.3512 -2.916,1.053 -0.6209,0.7025 -0.9317,1.6342 -0.9317,2.7947 l 0,6.2292 c 0,1.1807 0.2854,2.0969 0.8549,2.7485 0.6516,0.733 1.6492,1.0992 2.9928,1.0992 l 13.4059,0 0,-3.8477 -12.1236,0 0,-6.2292 7.5122,0 0,1.2823 z m 6.6874,-5.3137 0,14.1083 5.1306,0 0,-10.2606 2.5953,0 0,1.2829 5.1306,0 0,-1.2829 c 0,-1.1807 -0.2853,-2.0969 -0.8555,-2.7479 -0.651,-0.733 -1.6485,-1.0998 -2.9921,-1.0998 l -9.0089,0 z m 28.4303,0.1837 -4.5501,10.0769 -4.5501,-10.0769 -5.13,0 6.5349,13.9246 6.2292,0 6.5961,-13.9246 -5.13,0 z m 6.413,0 5.13,0 0,13.9246 -5.13,0 0,-13.9246 z m 0,-1.2829 5.13,0 0,-3.8477 -5.13,0 0,3.8477 z m 22.4141,5.1306 0,-3.8477 -11.1767,0 c -1.3234,0 -2.2956,0.3512 -2.916,1.053 -0.6209,0.7025 -0.9317,1.6342 -0.9317,2.7947 l 0,6.2292 c 0,1.1807 0.2854,2.0969 0.8549,2.7485 0.6516,0.733 1.6492,1.0992 2.9928,1.0992 l 11.1767,0 0,-3.8477 -9.8944,0 0,-6.2292 9.8944,0 z m 14.902,1.2823 -6.1987,0 0,3.6646 10.81,0 0,-4.9469 c 0,-1.1813 -0.2853,-2.0974 -0.8549,-2.7484 -0.6516,-0.7331 -1.6492,-1.0993 -2.9928,-1.0993 l -9.5582,0 c -1.3233,0 -2.2955,0.3512 -2.9159,1.053 -0.621,0.7025 -0.9317,1.6342 -0.9317,2.7947 l 0,6.2292 c 0,1.1807 0.2836,2.1003 0.8549,2.7485 0.6481,0.7347 1.6491,1.0992 2.9927,1.0992 l 40.1091,0 2.448,-3.8477 -41.2747,0 0,-6.2292 7.5122,0 0,1.2823 z" />
      <path
         inkscape:connector-curvature="0"
         id="path6659"
         style="fill:#005092;fill-rule:evenodd"
         d="m 261.8525,137.5937 c 61.7111,0 112.0444,24.3169 112.0444,54.1318 0,7.0097 -2.7837,13.715 -7.8433,19.8714 l -12.5359,0 c 1.2858,-2.4624 2.1251,-5.0578 2.474,-7.7721 3.2192,-25.05 -36.4433,-50.9155 -88.2935,-57.5821 -51.8518,-6.6636 -96.7645,8.3342 -99.9837,33.3853 -0.0613,0.4771 -0.1017,0.9543 -0.1317,1.4314 l -15.579,0 c 10.3011,-24.7369 55.6897,-43.4657 109.8487,-43.4657 z m 100.67,77.8509 c -18.2528,17.982 -56.5504,30.4134 -100.67,30.4134 -61.7122,0 -112.0449,-24.317 -112.0449,-54.1325 0,-2.3117 0.305,-4.5916 0.8919,-6.8288 l 16.9676,0 c 2.4532,23.3095 40.1212,46.113 88.3409,52.3111 43.2167,5.5557 81.6084,-3.9413 95.0611,-21.7632 l 11.4534,0 z" />
    </g>
  </g>
</svg>
